# xmcd CD database file
#
# Track frame offsets:
#	150
#	42601
#	74076
#	97295
#	134697
#	174379
#	216818
#	258533
#
# Disc length: 3802 seconds
#
# Revision: 0
# Processed by: cddbd v1.5.2PL0 Copyright (c) Steve Scherf et al.
# Submitted via: CDex 1.70beta2
#
DISCID=870ed808
DTITLE=Danius Pulauskas Group - Mixtum Compositum
DYEAR=2010
DGENRE=Jazz
TTITLE0=chiconora
TTITLE1=safaga
TTITLE2=ex improviso
TTITLE3=sogno
TTITLE4=machine shop
TTITLE5=suo tempore
TTITLE6=luxor
TTITLE7=7 days
EXTD=YEAR: 2010
EXTT0=
EXTT1=
EXTT2=
EXTT3=
EXTT4=
EXTT5=
EXTT6=
EXTT7=
PLAYORDER=
